# xmcd
#
# Track frame offsets:
#	150
#	15282
#	29915
#	44117
#	59005
#	72785
#	85187
#	97625
#	109601
#	124726
#	140461
#	154682
#	171221
#	182742
#	195560
#	212769
#
# Disc length: 3002 seconds
#
# Revision: 0
# Processed by: cddbd v1.5.1PL0 Copyright (c) Steve Scherf et al.
# Submitted via: dBpowerAMP V4.0
#
DISCID=db0bb810
DTITLE=Dean Brothers  - I Just Wanna' Dance with You
DYEAR=1900
DGENRE=
TTITLE0=I'm From The Country
TTITLE1=Devil Woman
TTITLE2=Heartaches By The Number
TTITLE3=I Just Wanna Dance With You
TTITLE4=I Can't Stop Loving You (slow)
TTITLE5=I Can't Stop Loving You (fast)
TTITLE6=I Can Help
TTITLE7=Treat Me Nice
TTITLE8=Before The Next Teardrop Falls
TTITLE9=Unchained Melody
TTITLE10=Okie From Muskogee
TTITLE11=There Goes The Neighbourhood
TTITLE12=A Thing Called Love
TTITLE13=Hello Honkytonk
TTITLE14=Brown eyed Girl
TTITLE15=Hello Walls
EXTD=
EXTT0=
EXTT1=
EXTT2=
EXTT3=
EXTT4=
EXTT5=
EXTT6=
EXTT7=
EXTT8=
EXTT9=
EXTT10=
EXTT11=
EXTT12=
EXTT13=
EXTT14=
EXTT15=
PLAYORDER=
